<svg id="svg" version="1.1" width="400" height="400" viewBox="0 0 400 400" xmlns="http://www.w3.org/2000/svg" xmlns:xlink="http://www.w3.org/1999/xlink" ><g id="svgg"><path id="path0" d="M177.930 133.839 C 162.832 134.503,147.129 135.679,133.984 137.131 C 108.693 139.923,107.512 141.515,104.440 176.953 C 103.591 186.737,103.464 211.490,104.216 220.508 C 107.588 260.967,107.196 260.558,145.898 264.050 C 172.259 266.429,209.612 267.119,232.813 265.657 C 255.729 264.212,276.830 261.911,281.332 260.364 C 286.077 258.735,290.806 254.174,291.815 250.256 C 292.044 249.363,292.485 247.754,292.794 246.680 C 293.311 244.884,294.304 236.640,295.289 225.977 C 298.170 194.780,295.619 154.876,290.205 146.439 C 285.419 138.980,277.637 137.256,236.523 134.544 C 227.733 133.964,186.389 133.466,177.930 133.839 M188.795 167.252 C 190.535 168.180,227.577 195.041,228.579 196.101 C 229.692 197.278,230.708 200.976,230.285 202.309 C 229.997 203.216,189.146 232.861,187.506 233.354 C 185.992 233.808,184.325 233.109,182.811 231.384 L 181.641 230.051 181.641 200.016 L 181.641 169.982 182.683 168.743 C 184.275 166.851,186.861 166.220,188.795 167.252 " stroke="none" fill="#ffffff" fill-rule="evenodd"></path><path id="path1" d="M181.836 0.620 C 72.300 10.495,-9.078 107.789,0.584 217.321 C 10.976 335.119,119.786 417.981,236.328 396.847 C 336.305 378.718,407.394 286.590,399.632 185.216 C 391.073 73.434,293.306 -9.430,181.836 0.620 M221.875 133.602 C 253.628 134.842,278.369 137.584,284.130 140.504 C 287.729 142.327,292.578 148.400,292.578 151.083 C 292.578 151.475,292.731 151.964,292.917 152.168 C 295.138 154.597,297.483 193.221,296.520 211.523 C 295.776 225.677,293.855 244.828,293.025 246.380 C 292.779 246.839,292.578 247.773,292.578 248.455 C 292.578 251.247,289.169 256.113,285.492 258.568 C 282.339 260.674,279.264 261.530,271.484 262.471 C 226.840 267.870,182.432 268.197,136.909 263.462 C 121.380 261.847,117.780 261.001,113.721 258.013 C 110.791 255.856,107.422 250.994,107.422 248.922 C 107.422 248.527,107.262 248.036,107.067 247.832 C 106.672 247.419,105.038 233.209,104.038 221.484 C 103.145 211.015,103.148 188.933,104.043 178.516 C 105.288 164.033,106.294 155.268,106.857 153.991 C 107.167 153.285,107.422 152.181,107.422 151.538 C 107.422 144.935,115.398 139.184,126.563 137.736 C 155.209 134.020,191.859 132.431,221.875 133.602 M183.913 167.859 C 181.765 169.191,181.836 168.095,181.836 200.000 C 181.836 232.218,181.728 230.687,184.122 232.327 C 186.033 233.637,187.441 233.455,190.187 231.543 C 201.323 223.786,229.712 202.883,229.896 202.304 C 230.275 201.107,229.656 198.113,228.763 196.829 C 228.305 196.170,219.059 189.232,208.216 181.409 C 186.552 165.780,186.927 165.989,183.913 167.859 " stroke="none" fill="#ca3737" fill-rule="evenodd"></path><path id="path2" d="" stroke="none" fill="#ff0000" fill-rule="evenodd"></path><path id="path3" d="M186.047 133.491 C 187.074 133.571,188.656 133.570,189.563 133.489 C 190.469 133.407,189.629 133.341,187.695 133.342 C 185.762 133.343,185.020 133.410,186.047 133.491 M210.840 133.489 C 211.753 133.571,213.247 133.571,214.160 133.489 C 215.073 133.407,214.326 133.340,212.500 133.340 C 210.674 133.340,209.927 133.407,210.840 133.489 M174.121 133.869 C 174.604 133.963,175.396 133.963,175.879 133.869 C 176.362 133.776,175.967 133.700,175.000 133.700 C 174.033 133.700,173.638 133.776,174.121 133.869 M224.512 133.869 C 224.995 133.963,225.786 133.963,226.270 133.869 C 226.753 133.776,226.357 133.700,225.391 133.700 C 224.424 133.700,224.028 133.776,224.512 133.869 M111.698 143.652 L 110.352 145.117 111.816 143.771 C 112.622 143.031,113.281 142.371,113.281 142.306 C 113.281 142.008,112.951 142.289,111.698 143.652 M287.891 143.555 C 288.619 144.307,289.304 144.922,289.411 144.922 C 289.518 144.922,289.010 144.307,288.281 143.555 C 287.552 142.803,286.868 142.188,286.761 142.188 C 286.653 142.188,287.162 142.803,287.891 143.555 M296.192 182.227 C 296.197 183.086,296.277 183.392,296.370 182.906 C 296.463 182.420,296.460 181.717,296.362 181.343 C 296.264 180.970,296.188 181.367,296.192 182.227 M103.606 184.766 C 103.606 185.518,103.687 185.825,103.785 185.449 C 103.883 185.073,103.883 184.458,103.785 184.082 C 103.687 183.706,103.606 184.014,103.606 184.766 M296.651 199.414 C 296.651 204.141,296.708 206.021,296.776 203.592 C 296.845 201.163,296.845 197.296,296.776 194.998 C 296.707 192.700,296.651 194.688,296.651 199.414 M103.290 200.000 C 103.290 204.404,103.347 206.206,103.416 204.004 C 103.486 201.802,103.486 198.198,103.416 195.996 C 103.347 193.794,103.290 195.596,103.290 200.000 M103.606 215.234 C 103.606 215.986,103.687 216.294,103.785 215.918 C 103.883 215.542,103.883 214.927,103.785 214.551 C 103.687 214.175,103.606 214.482,103.606 215.234 M110.547 255.200 C 110.547 255.268,111.118 255.839,111.816 256.470 L 113.086 257.617 111.939 256.348 C 110.869 255.164,110.547 254.899,110.547 255.200 M288.061 256.348 L 286.914 257.617 288.184 256.470 C 288.882 255.839,289.453 255.268,289.453 255.200 C 289.453 254.899,289.131 255.164,288.061 256.348 M166.113 265.894 C 166.489 265.993,167.104 265.993,167.480 265.894 C 167.856 265.796,167.549 265.716,166.797 265.716 C 166.045 265.716,165.737 265.796,166.113 265.894 M232.129 265.894 C 232.505 265.993,233.120 265.993,233.496 265.894 C 233.872 265.796,233.564 265.716,232.813 265.716 C 232.061 265.716,231.753 265.796,232.129 265.894 M174.126 266.292 C 174.612 266.385,175.315 266.382,175.688 266.284 C 176.062 266.186,175.664 266.110,174.805 266.114 C 173.945 266.118,173.640 266.198,174.126 266.292 M224.126 266.292 C 224.612 266.385,225.315 266.382,225.688 266.284 C 226.062 266.186,225.664 266.110,224.805 266.114 C 223.945 266.118,223.640 266.198,224.126 266.292 M185.840 266.692 C 186.753 266.775,188.247 266.775,189.160 266.692 C 190.073 266.610,189.326 266.543,187.500 266.543 C 185.674 266.543,184.927 266.610,185.840 266.692 M210.656 266.694 C 211.683 266.775,213.265 266.774,214.172 266.692 C 215.079 266.610,214.238 266.544,212.305 266.545 C 210.371 266.546,209.629 266.613,210.656 266.694 " stroke="none" fill="#d86c6c" fill-rule="evenodd"></path><path id="path4" d="M195.628 133.495 C 198.272 133.563,202.491 133.563,205.003 133.495 C 207.515 133.427,205.352 133.371,200.195 133.372 C 195.039 133.372,192.984 133.427,195.628 133.495 M177.644 133.877 C 178.346 133.964,179.400 133.962,179.987 133.873 C 180.574 133.784,180.000 133.713,178.711 133.715 C 177.422 133.717,176.942 133.790,177.644 133.877 M220.215 133.876 C 220.913 133.963,222.056 133.963,222.754 133.876 C 223.452 133.790,222.881 133.719,221.484 133.719 C 220.088 133.719,219.517 133.790,220.215 133.876 M168.652 134.260 C 169.136 134.353,169.927 134.353,170.410 134.260 C 170.894 134.167,170.498 134.091,169.531 134.091 C 168.564 134.091,168.169 134.167,168.652 134.260 M229.980 134.260 C 230.464 134.353,231.255 134.353,231.738 134.260 C 232.222 134.167,231.826 134.091,230.859 134.091 C 229.893 134.091,229.497 134.167,229.980 134.260 M162.207 134.644 C 162.583 134.743,163.198 134.743,163.574 134.644 C 163.950 134.546,163.643 134.466,162.891 134.466 C 162.139 134.466,161.831 134.546,162.207 134.644 M236.816 134.644 C 237.192 134.743,237.808 134.743,238.184 134.644 C 238.560 134.546,238.252 134.466,237.500 134.466 C 236.748 134.466,236.440 134.546,236.816 134.644 M103.997 180.859 C 103.997 181.611,104.077 181.919,104.176 181.543 C 104.274 181.167,104.274 180.552,104.176 180.176 C 104.077 179.800,103.997 180.107,103.997 180.859 M296.205 185.352 C 296.208 186.426,296.284 186.819,296.374 186.225 C 296.464 185.631,296.461 184.752,296.369 184.272 C 296.276 183.792,296.203 184.277,296.205 185.352 M103.627 187.695 C 103.630 188.770,103.706 189.163,103.796 188.569 C 103.886 187.975,103.883 187.096,103.791 186.616 C 103.698 186.135,103.624 186.621,103.627 187.695 M103.627 212.305 C 103.630 213.379,103.706 213.772,103.796 213.178 C 103.886 212.584,103.883 211.706,103.791 211.225 C 103.698 210.745,103.624 211.230,103.627 212.305 M296.205 212.305 C 296.208 213.379,296.284 213.772,296.374 213.178 C 296.464 212.584,296.461 211.706,296.369 211.225 C 296.276 210.745,296.203 211.230,296.205 212.305 M103.997 219.141 C 103.997 219.893,104.077 220.200,104.176 219.824 C 104.274 219.448,104.274 218.833,104.176 218.457 C 104.077 218.081,103.997 218.389,103.997 219.141 M295.794 219.141 C 295.794 219.893,295.874 220.200,295.972 219.824 C 296.071 219.448,296.071 218.833,295.972 218.457 C 295.874 218.081,295.794 218.389,295.794 219.141 M161.816 265.504 C 162.192 265.602,162.808 265.602,163.184 265.504 C 163.560 265.405,163.252 265.325,162.500 265.325 C 161.748 265.325,161.440 265.405,161.816 265.504 M236.426 265.504 C 236.802 265.602,237.417 265.602,237.793 265.504 C 238.169 265.405,237.861 265.325,237.109 265.325 C 236.357 265.325,236.050 265.405,236.426 265.504 M168.652 265.901 C 169.136 265.994,169.927 265.994,170.410 265.901 C 170.894 265.808,170.498 265.731,169.531 265.731 C 168.564 265.731,168.169 265.808,168.652 265.901 M229.199 265.901 C 229.683 265.994,230.474 265.994,230.957 265.901 C 231.440 265.808,231.045 265.731,230.078 265.731 C 229.111 265.731,228.716 265.808,229.199 265.901 M177.246 266.298 C 177.944 266.385,179.087 266.385,179.785 266.298 C 180.483 266.212,179.912 266.141,178.516 266.141 C 177.119 266.141,176.548 266.212,177.246 266.298 M220.222 266.299 C 220.924 266.386,221.979 266.384,222.566 266.295 C 223.153 266.206,222.578 266.134,221.289 266.137 C 220.000 266.139,219.520 266.212,220.222 266.299 M195.237 266.698 C 197.881 266.766,202.100 266.766,204.612 266.698 C 207.124 266.630,204.961 266.574,199.805 266.575 C 194.648 266.575,192.593 266.631,195.237 266.698 " stroke="none" fill="#edbcbc" fill-rule="evenodd"></path></g></svg>